<svg id="svg" version="1.1" xmlns="http://www.w3.org/2000/svg" xmlns:xlink="http://www.w3.org/1999/xlink" width="400" height="225" viewBox="0, 0, 400,225"><g id="svgg"><path id="path0" d="M321.979 88.951 C 320.948 89.043,319.026 89.246,317.708 89.402 L 315.313 89.684 319.479 89.829 C 330.941 90.228,333.659 92.716,331.048 100.417 C 329.906 103.785,329.251 107.292,329.763 107.292 C 329.861 107.292,329.995 106.777,330.060 106.148 C 330.224 104.559,331.253 102.332,333.614 98.456 C 336.887 93.082,336.992 91.282,334.109 89.932 C 331.987 88.939,326.790 88.518,321.979 88.951 M263.557 93.576 C 261.410 94.193,259.831 96.355,260.068 98.354 C 260.283 100.175,261.500 102.230,269.280 113.912 L 276.872 125.313 276.874 134.732 C 276.875 144.972,276.920 145.400,278.149 146.962 C 280.041 149.367,284.872 149.278,286.760 146.804 C 287.988 145.193,287.997 145.116,288.118 134.583 L 288.229 124.896 295.994 113.400 C 304.392 100.965,305.042 99.856,305.042 97.944 C 305.042 94.670,301.654 92.511,298.305 93.652 C 296.877 94.139,295.547 95.686,292.670 100.208 C 287.435 108.435,282.647 115.841,282.598 115.786 C 282.571 115.755,280.135 111.932,277.185 107.292 C 267.905 92.692,267.623 92.408,263.557 93.576 M153.301 94.684 C 149.183 96.199,149.336 101.752,153.529 102.998 C 154.466 103.276,155.808 103.333,161.392 103.333 L 168.125 103.333 168.129 123.073 C 168.133 144.688,168.142 144.864,169.328 146.558 C 171.291 149.358,176.179 149.478,178.240 146.776 C 179.517 145.101,179.466 146.005,179.536 123.710 L 179.599 103.358 186.726 103.294 C 193.435 103.233,193.909 103.204,194.792 102.795 C 198.413 101.119,198.341 96.177,194.676 94.805 C 193.211 94.257,154.768 94.145,153.301 94.684 M211.771 94.666 C 209.755 95.304,208.749 96.258,208.212 98.045 C 207.735 99.629,207.776 143.684,208.256 145.169 C 209.771 149.859,216.731 150.050,218.583 145.453 C 219.051 144.290,219.060 144.112,219.124 134.635 L 219.190 125.000 221.834 125.002 C 229.538 125.006,230.631 125.898,238.569 138.654 C 244.222 147.739,244.944 148.507,248.016 148.704 C 251.465 148.926,254.250 146.714,253.884 144.044 C 253.213 139.146,245.902 128.450,240.752 124.830 L 239.109 123.675 240.856 123.206 C 248.858 121.061,252.900 116.369,252.913 109.208 C 252.928 101.388,247.584 95.618,239.380 94.595 C 236.716 94.263,212.851 94.325,211.771 94.666 M234.216 102.712 C 238.783 103.235,241.217 105.457,241.419 109.287 C 241.743 115.478,238.509 117.080,225.677 117.082 L 219.167 117.083 219.167 109.792 L 219.167 102.500 225.781 102.502 C 229.419 102.503,233.215 102.597,234.216 102.712 M343.542 106.937 L 343.542 109.312 345.573 109.447 C 346.690 109.521,350.346 109.582,353.698 109.582 L 359.792 109.583 359.779 109.115 C 359.762 108.490,359.085 105.054,358.956 104.939 C 358.900 104.889,355.409 104.783,351.198 104.704 L 343.542 104.561 343.542 106.937 M348.345 114.238 C 347.964 114.620,348.060 118.681,348.455 118.832 C 348.636 118.901,352.079 118.958,356.107 118.958 L 363.430 118.958 362.682 118.450 C 361.792 117.845,361.216 116.728,361.083 115.347 C 361.029 114.793,360.881 114.308,360.753 114.269 C 360.097 114.066,348.545 114.038,348.345 114.238 M335.540 115.448 C 341.419 119.505,343.563 122.295,345.813 128.820 C 347.077 132.485,349.447 135.414,350.692 134.847 C 352.097 134.206,352.844 133.169,351.813 133.289 C 350.208 133.476,348.320 130.861,346.698 126.206 C 345.023 121.396,342.956 118.996,337.965 116.067 C 336.973 115.485,334.083 114.167,333.799 114.167 C 333.736 114.167,334.519 114.743,335.540 115.448 M361.475 132.623 C 360.855 132.789,359.512 133.302,358.492 133.761 C 356.795 134.525,355.050 135.045,353.438 135.268 C 352.923 135.339,352.962 135.360,353.660 135.385 C 354.126 135.403,355.017 135.568,355.639 135.754 C 357.211 136.222,359.065 136.036,361.152 135.201 C 363.726 134.170,364.958 134.148,367.285 135.090 C 370.773 136.503,373.136 136.735,375.104 135.859 L 375.938 135.488 374.256 135.346 C 372.009 135.157,370.652 134.781,368.144 133.654 C 364.976 132.230,363.680 132.030,361.475 132.623 " stroke="none" fill="#f8fafa" fill-rule="evenodd"></path><path id="path1" d="M22.380 49.491 C 21.593 53.683,23.857 57.408,29.233 60.768 C 31.002 61.874,32.474 63.244,32.494 63.804 C 32.506 64.116,34.658 67.750,34.882 67.836 C 35.008 67.884,36.282 67.444,37.712 66.856 C 39.142 66.269,41.331 65.373,42.575 64.865 C 43.820 64.357,46.820 63.289,49.242 62.492 C 56.373 60.146,56.199 60.269,54.427 58.830 C 53.883 58.389,53.250 57.854,53.021 57.642 C 51.333 56.082,45.804 53.030,42.292 51.719 C 38.122 50.164,36.925 50.280,31.272 52.789 C 28.198 54.153,27.745 54.049,26.489 51.693 C 25.110 49.106,22.695 47.812,22.380 49.491 M121.398 49.399 C 121.078 49.641,120.583 50.300,120.297 50.864 C 119.180 53.068,117.750 53.228,113.300 51.647 C 107.784 49.687,102.828 50.870,95.208 55.966 C 89.162 60.011,88.977 60.390,92.604 61.321 C 96.821 62.403,101.947 64.259,107.358 66.663 C 111.099 68.325,111.037 68.336,112.376 65.820 C 114.287 62.233,114.609 61.875,116.563 61.160 C 120.864 59.586,123.224 55.783,123.228 50.417 L 123.229 49.063 122.604 49.011 C 122.226 48.980,121.750 49.134,121.398 49.399 M68.542 65.634 C 64.219 65.858,60.339 66.398,56.354 67.328 C 47.212 69.463,39.633 72.784,30.885 78.489 C 27.989 80.377,27.999 80.298,30.365 82.876 C 38.694 91.956,42.479 94.347,50.374 95.518 C 58.928 96.788,64.869 99.506,70.362 104.664 C 73.006 107.146,72.373 107.221,76.175 103.975 C 81.649 99.299,87.106 96.774,93.750 95.842 C 102.957 94.549,107.288 91.957,115.625 82.747 C 117.894 80.240,117.993 80.514,113.854 77.811 C 100.043 68.788,85.104 64.773,68.542 65.634 M26.927 89.930 C 26.542 90.085,26.604 91.846,27.065 93.817 C 27.284 94.754,27.572 96.130,27.704 96.875 C 27.837 97.620,27.989 98.417,28.042 98.646 C 28.095 98.875,28.331 100.141,28.567 101.458 C 28.803 102.776,29.078 104.276,29.177 104.792 C 29.276 105.307,29.455 106.268,29.574 106.927 C 29.694 107.586,29.882 108.617,29.992 109.219 C 30.103 109.820,30.378 111.344,30.605 112.604 C 30.831 113.865,31.076 115.224,31.149 115.625 C 31.222 116.026,31.363 116.823,31.462 117.396 C 31.561 117.969,31.838 119.516,32.076 120.833 C 32.314 122.151,32.699 124.307,32.931 125.625 C 33.744 130.245,32.544 129.181,42.564 134.167 L 50.729 138.229 50.836 143.542 C 50.965 149.913,50.581 149.070,54.431 151.454 C 56.176 152.534,57.979 153.655,58.438 153.945 C 58.896 154.234,59.427 154.566,59.618 154.683 C 61.111 155.599,62.780 156.634,63.686 157.206 L 64.351 157.627 62.948 159.803 C 62.177 161.000,61.362 162.276,61.138 162.639 L 60.729 163.298 58.958 162.177 C 57.984 161.560,56.984 160.935,56.735 160.788 C 56.005 160.356,53.959 159.092,53.363 158.704 C 50.904 157.104,50.832 157.196,50.837 161.977 C 50.851 174.262,56.994 182.216,68.597 184.973 C 70.294 185.376,76.082 185.271,78.039 184.801 C 85.935 182.908,92.425 176.583,94.510 168.750 C 94.715 167.980,94.854 165.991,94.934 162.689 C 95.078 156.806,95.161 156.964,92.733 158.485 C 91.860 159.032,90.958 159.583,90.729 159.711 C 90.500 159.838,89.328 160.550,88.125 161.292 C 84.746 163.376,85.174 163.318,84.191 161.819 C 83.723 161.105,82.925 159.870,82.418 159.075 L 81.495 157.628 82.675 156.907 C 83.323 156.510,84.464 155.792,85.208 155.311 C 85.953 154.831,86.844 154.279,87.188 154.086 C 87.531 153.893,88.210 153.481,88.696 153.170 C 89.181 152.859,90.565 152.007,91.770 151.278 C 92.975 150.549,94.195 149.675,94.481 149.335 L 95.000 148.718 95.015 143.786 C 95.023 141.074,95.095 138.688,95.175 138.486 C 95.263 138.264,98.563 136.512,103.475 134.080 C 112.588 129.567,112.093 129.941,112.591 127.188 C 112.777 126.156,113.021 124.844,113.132 124.271 C 113.334 123.238,113.802 120.700,114.179 118.594 C 114.287 117.992,114.469 116.984,114.583 116.354 C 115.385 111.947,115.659 110.403,115.733 109.896 C 115.766 109.667,115.955 108.635,116.154 107.604 C 116.353 106.573,116.544 105.542,116.580 105.313 C 116.616 105.083,116.744 104.357,116.864 103.698 C 117.122 102.291,117.359 100.974,117.792 98.542 C 117.965 97.568,118.257 95.927,118.442 94.896 C 119.174 90.794,119.214 90.413,118.951 90.095 C 118.488 89.537,118.017 89.782,116.668 91.281 C 111.225 97.331,103.963 101.094,95.417 102.293 C 88.113 103.318,82.849 106.084,78.368 111.251 C 76.607 113.280,76.373 113.572,75.739 114.529 C 75.453 114.960,74.678 116.124,74.016 117.117 L 72.813 118.921 72.164 117.950 C 71.807 117.416,70.784 115.854,69.891 114.479 C 65.315 107.434,60.074 104.192,50.000 102.177 C 39.980 100.173,36.560 98.496,30.369 92.552 C 28.787 91.034,27.425 89.799,27.340 89.808 C 27.256 89.817,27.070 89.872,26.927 89.930 M3.594 94.716 C 3.282 94.848,3.244 96.799,3.523 98.271 C 3.628 98.821,3.823 99.974,3.958 100.833 C 4.547 104.590,5.747 108.342,7.602 112.222 C 8.976 115.096,10.462 117.483,12.022 119.323 C 12.567 119.966,12.828 120.417,12.655 120.417 C 12.493 120.417,11.759 120.604,11.024 120.833 C 9.593 121.279,9.407 121.336,6.615 122.189 C 4.918 122.707,4.792 122.784,4.794 123.300 C 4.799 124.825,10.345 134.411,12.287 136.250 C 12.347 136.307,13.216 137.292,14.217 138.438 C 15.219 139.583,16.157 140.615,16.301 140.729 C 16.446 140.844,17.267 141.556,18.126 142.312 C 25.146 148.493,36.176 153.141,42.708 152.672 L 43.646 152.604 43.702 147.565 L 43.757 142.527 43.077 142.013 C 42.702 141.731,39.161 139.893,35.208 137.928 C 26.855 133.776,27.353 134.181,26.980 131.250 C 26.959 131.078,26.779 130.094,26.581 129.063 C 26.239 127.280,25.687 124.296,25.194 121.563 C 25.070 120.875,24.889 119.891,24.792 119.375 C 24.694 118.859,24.507 117.828,24.375 117.083 C 24.243 116.339,24.056 115.307,23.958 114.792 C 23.861 114.276,23.674 113.245,23.542 112.500 C 23.410 111.755,23.222 110.724,23.125 110.208 C 23.028 109.693,22.840 108.661,22.708 107.917 C 22.576 107.172,22.387 106.141,22.288 105.625 C 22.189 105.109,21.997 104.031,21.860 103.229 C 21.316 100.039,21.075 99.676,19.165 99.171 C 18.650 99.035,17.807 98.792,17.292 98.633 C 15.025 97.929,4.449 94.743,4.167 94.678 C 3.995 94.639,3.737 94.656,3.594 94.716 M141.042 94.774 C 140.870 94.872,139.417 95.346,137.813 95.827 C 136.208 96.309,133.724 97.062,132.292 97.502 C 130.859 97.941,128.748 98.586,127.599 98.934 C 125.136 99.680,124.577 100.162,124.194 101.875 C 124.053 102.505,123.849 103.419,123.740 103.906 C 123.631 104.393,123.453 105.190,123.344 105.677 C 123.090 106.815,122.801 108.296,122.502 110.000 C 122.371 110.745,122.183 111.729,122.083 112.188 C 121.984 112.646,121.803 113.583,121.681 114.271 C 121.560 114.958,121.326 116.224,121.162 117.083 C 120.998 117.943,120.809 119.021,120.743 119.479 C 120.677 119.938,120.575 120.547,120.516 120.833 C 120.317 121.809,120.207 122.395,120.008 123.542 C 119.791 124.790,119.696 125.317,118.740 130.573 C 118.621 131.232,118.472 132.099,118.411 132.500 C 118.154 134.172,118.063 134.257,114.929 135.762 C 107.025 139.556,102.512 141.898,102.102 142.420 C 101.667 142.973,101.407 151.371,101.793 152.379 C 102.137 153.276,108.802 152.321,113.542 150.697 C 125.000 146.768,133.749 138.295,140.886 124.216 C 141.483 123.038,141.190 122.752,138.646 122.029 C 133.405 120.539,132.888 120.332,133.312 119.886 C 136.471 116.568,141.325 105.776,141.980 100.615 C 142.057 100.009,142.206 99.288,142.310 99.014 C 142.654 98.109,142.549 94.855,142.170 94.710 C 141.731 94.541,141.419 94.559,141.042 94.774 M296.250 125.383 L 296.250 127.917 305.295 127.917 C 310.270 127.917,314.489 127.860,314.670 127.790 C 315.165 127.600,315.158 123.438,314.662 123.248 C 314.476 123.177,310.257 123.058,305.287 122.984 L 296.250 122.849 296.250 125.383 M305.776 132.796 C 305.336 133.236,305.297 136.725,305.728 137.083 C 306.468 137.697,311.544 137.103,311.140 136.449 C 311.082 136.355,311.132 136.219,311.250 136.146 C 311.368 136.073,311.411 135.926,311.345 135.819 C 311.279 135.712,311.325 135.625,311.446 135.625 C 311.579 135.625,311.667 135.085,311.667 134.271 C 311.667 133.328,311.588 132.916,311.406 132.913 C 311.233 132.911,311.250 132.843,311.458 132.708 C 311.669 132.572,310.838 132.505,308.921 132.503 C 306.734 132.501,306.003 132.569,305.776 132.796 M375.809 146.621 C 375.740 147.035,375.771 147.229,375.886 147.114 C 375.991 147.009,376.042 146.701,375.999 146.430 C 375.934 146.013,375.904 146.043,375.809 146.621 M345.885 147.029 C 346.544 147.070,347.622 147.070,348.281 147.029 C 348.940 146.988,348.401 146.954,347.083 146.954 C 345.766 146.954,345.227 146.988,345.885 147.029 M371.094 147.237 C 371.753 147.279,372.831 147.279,373.490 147.237 C 374.148 147.196,373.609 147.162,372.292 147.162 C 370.974 147.162,370.435 147.196,371.094 147.237 " stroke="none" fill="#7c236c" fill-rule="evenodd"></path><path id="path2" d="M323.358 82.753 C 318.543 86.559,314.628 89.697,314.658 89.727 C 314.688 89.757,315.738 89.648,316.992 89.484 C 327.003 88.179,334.002 88.750,335.594 91.002 C 336.703 92.572,336.320 94.013,333.614 98.456 C 331.253 102.332,330.224 104.559,330.060 106.148 C 329.995 106.777,329.861 107.292,329.763 107.292 C 329.664 107.292,329.583 107.438,329.583 107.616 C 329.583 107.809,329.681 107.881,329.824 107.792 C 329.996 107.686,330.028 107.829,329.936 108.288 C 329.675 109.595,333.007 114.519,333.942 114.207 C 334.097 114.155,334.174 114.195,334.111 114.296 C 334.049 114.397,334.214 114.492,334.478 114.508 C 335.998 114.599,340.772 117.653,343.180 120.074 C 345.020 121.925,345.496 122.755,346.698 126.206 C 348.320 130.861,350.208 133.476,351.813 133.289 C 352.855 133.167,352.444 133.804,350.874 134.743 L 350.186 135.155 351.395 135.263 C 353.125 135.419,355.870 134.895,357.813 134.038 C 362.755 131.860,364.042 131.811,368.130 133.648 C 370.685 134.797,372.055 135.171,374.344 135.347 L 376.084 135.481 375.999 131.855 C 375.880 126.837,375.114 124.805,372.347 122.167 C 369.294 119.258,367.915 118.967,357.152 118.962 C 347.105 118.958,348.125 119.226,348.125 116.582 C 348.125 113.789,347.548 114.005,354.676 114.123 L 360.791 114.224 360.399 112.060 C 360.183 110.870,360.005 109.826,360.003 109.740 C 360.002 109.654,357.211 109.583,353.802 109.582 C 350.393 109.582,346.690 109.521,345.573 109.447 L 343.542 109.312 343.542 106.937 L 343.542 104.563 351.250 104.710 C 355.490 104.791,358.958 104.781,358.958 104.689 C 358.958 104.534,357.813 98.236,357.579 97.101 C 357.476 96.604,351.144 90.000,350.770 90.000 C 350.665 90.000,350.050 90.484,349.404 91.076 C 344.414 95.646,343.141 94.872,337.681 83.948 C 335.130 78.843,333.130 75.833,332.288 75.833 C 332.192 75.833,328.173 78.947,323.358 82.753 M164.307 94.323 C 169.483 94.354,178.015 94.354,183.266 94.323 C 188.516 94.292,184.281 94.267,173.854 94.267 C 163.427 94.266,159.131 94.292,164.307 94.323 M219.010 94.323 C 222.076 94.355,227.091 94.355,230.156 94.323 C 233.221 94.290,230.714 94.264,224.583 94.264 C 218.453 94.264,215.945 94.290,219.010 94.323 M296.239 94.948 L 295.521 95.729 296.302 95.011 C 296.732 94.616,297.083 94.265,297.083 94.230 C 297.083 94.071,296.907 94.221,296.239 94.948 M248.854 98.958 C 249.302 99.417,249.715 99.792,249.772 99.792 C 249.829 99.792,249.510 99.417,249.063 98.958 C 248.615 98.500,248.202 98.125,248.145 98.125 C 248.087 98.125,248.407 98.500,248.854 98.958 M207.809 121.563 C 207.809 133.594,207.834 138.485,207.865 132.432 C 207.895 126.379,207.895 116.535,207.865 110.557 C 207.834 104.579,207.809 109.531,207.809 121.563 M232.135 102.644 C 232.336 102.696,232.664 102.696,232.865 102.644 C 233.065 102.591,232.901 102.548,232.500 102.548 C 232.099 102.548,231.935 102.591,232.135 102.644 M249.155 118.906 L 248.438 119.688 249.219 118.970 C 249.946 118.301,250.096 118.125,249.937 118.125 C 249.902 118.125,249.550 118.477,249.155 118.906 M340.417 119.479 C 340.805 119.880,341.170 120.208,341.228 120.208 C 341.285 120.208,341.014 119.880,340.625 119.479 C 340.236 119.078,339.871 118.750,339.814 118.750 C 339.757 118.750,340.028 119.078,340.417 119.479 M276.762 134.271 C 276.762 139.313,276.790 141.345,276.823 138.788 C 276.856 136.231,276.856 132.106,276.823 129.621 C 276.789 127.137,276.762 129.229,276.762 134.271 M243.646 127.292 C 244.326 127.979,244.930 128.542,244.987 128.542 C 245.044 128.542,244.534 127.979,243.854 127.292 C 243.174 126.604,242.570 126.042,242.513 126.042 C 242.456 126.042,242.966 126.604,243.646 127.292 M231.241 128.177 C 232.105 129.097,232.292 129.262,232.292 129.106 C 232.292 129.072,231.846 128.627,231.302 128.116 L 230.313 127.188 231.241 128.177 " stroke="none" fill="#70cc6c" fill-rule="evenodd"></path><path id="path3" d="M310.104 93.223 C 306.928 95.710,305.729 96.767,305.729 97.079 C 305.729 97.331,309.815 102.726,315.556 110.057 C 320.961 116.958,329.638 128.042,334.838 134.688 L 344.293 146.771 347.303 146.902 C 348.958 146.974,356.031 147.053,363.021 147.077 L 375.729 147.122 375.861 146.530 C 375.933 146.204,376.003 143.582,376.017 140.703 L 376.042 135.469 375.203 135.884 C 373.339 136.806,370.632 136.538,367.125 135.082 C 364.914 134.165,363.850 134.189,361.343 135.213 C 359.539 135.950,356.695 136.295,355.905 135.871 C 355.679 135.751,354.282 135.537,352.800 135.397 L 350.104 135.142 348.428 133.456 C 346.764 131.783,346.746 131.753,345.954 129.375 C 343.668 122.505,340.989 119.043,334.897 115.082 C 329.719 111.716,328.576 107.749,330.819 100.938 C 332.087 97.088,332.302 95.632,331.797 94.311 C 330.654 91.318,325.747 89.787,317.322 89.794 L 314.479 89.797 310.104 93.223 M349.469 90.885 L 348.646 91.771 349.531 90.947 C 350.018 90.494,350.417 90.096,350.417 90.062 C 350.417 89.904,350.235 90.062,349.469 90.885 M262.811 92.458 C 259.983 93.436,258.471 95.842,258.822 98.807 C 259.044 100.682,260.298 102.812,267.927 114.275 L 275.417 125.530 275.417 134.443 C 275.417 144.280,275.522 145.349,276.667 147.155 C 279.533 151.673,286.758 150.896,288.800 145.850 C 289.261 144.711,289.272 144.496,289.333 135.148 L 289.395 125.608 296.593 114.939 C 306.734 99.908,306.934 99.547,305.920 98.054 C 305.338 97.198,305.293 96.821,305.729 96.458 C 306.729 95.628,304.284 92.886,301.991 92.266 C 297.994 91.186,295.896 92.658,291.415 99.688 C 285.907 108.330,282.654 113.348,282.600 113.289 C 282.569 113.256,280.227 109.573,277.394 105.104 C 270.358 94.006,269.437 92.827,267.406 92.316 C 266.067 91.979,264.012 92.042,262.811 92.458 M153.547 93.251 C 148.874 94.506,147.407 99.461,150.698 102.872 C 152.232 104.462,153.159 104.638,160.569 104.743 L 166.867 104.832 166.923 124.656 C 166.986 146.707,166.914 145.589,168.399 147.543 C 171.150 151.160,177.415 150.876,179.667 147.032 C 180.830 145.048,180.827 145.117,180.830 124.135 L 180.833 104.832 187.135 104.743 C 192.890 104.661,193.557 104.614,194.812 104.203 C 200.413 102.368,199.966 94.562,194.186 93.248 C 192.081 92.769,155.329 92.772,153.547 93.251 M212.708 93.065 C 209.297 93.663,207.479 95.283,206.782 98.345 C 206.289 100.513,206.294 142.634,206.788 144.805 C 208.003 150.145,214.491 152.021,218.340 148.144 C 220.312 146.157,220.298 146.244,220.371 135.550 L 220.433 126.413 223.498 126.497 C 229.104 126.650,230.032 127.480,236.831 138.411 C 243.189 148.631,243.690 149.205,246.899 149.930 C 251.026 150.862,255.208 148.143,255.208 144.527 C 255.208 140.783,249.985 131.829,244.708 126.527 L 242.392 124.200 244.060 123.564 C 250.696 121.034,254.176 116.147,254.236 109.271 C 254.315 100.199,248.260 94.106,238.194 93.127 C 236.215 92.934,213.764 92.880,212.708 93.065 M267.158 93.589 C 268.803 94.081,269.462 94.982,277.700 107.983 C 281.648 114.213,282.610 115.602,282.821 115.379 C 283.026 115.163,289.995 104.353,294.626 97.069 C 297.290 92.877,301.548 91.993,304.108 95.099 C 306.438 97.926,306.322 98.189,295.816 113.781 L 288.145 125.165 288.083 134.822 C 288.021 144.472,288.020 144.480,287.527 145.571 C 285.530 149.990,279.042 149.915,277.252 145.453 C 276.789 144.298,276.775 144.050,276.670 134.583 L 276.563 124.896 269.208 113.880 C 261.461 102.276,260.244 100.222,260.060 98.436 C 259.697 94.919,263.326 92.441,267.158 93.589 M194.580 94.644 C 198.656 96.269,198.437 101.777,194.247 103.038 C 193.488 103.267,191.725 103.333,186.425 103.333 L 179.583 103.333 179.583 123.219 C 179.583 143.725,179.557 144.439,178.737 146.061 C 176.763 149.964,170.574 149.667,168.727 145.581 L 168.229 144.479 168.171 123.906 L 168.113 103.333 161.277 103.333 C 152.662 103.333,151.813 103.126,150.707 100.750 C 149.363 97.862,150.923 95.048,154.238 94.381 C 156.170 93.991,193.556 94.235,194.580 94.644 M237.298 94.374 C 247.265 95.092,252.941 100.458,252.933 109.153 C 252.927 116.435,248.757 121.322,240.886 123.272 C 239.073 123.721,239.085 123.665,240.591 124.635 C 245.067 127.518,251.645 136.664,253.634 142.768 C 254.708 146.066,252.362 148.796,248.454 148.796 C 245.158 148.796,244.303 147.936,238.766 139.056 C 230.615 125.980,229.407 125.000,221.443 125.000 L 219.167 125.000 219.167 134.227 C 219.167 145.935,218.993 146.750,216.190 148.200 C 212.593 150.062,208.682 148.105,207.936 144.070 C 207.619 142.356,207.619 100.769,207.936 99.055 C 208.449 96.278,209.904 94.851,212.708 94.375 C 214.098 94.139,234.029 94.138,237.298 94.374 M219.167 109.786 L 219.167 117.124 226.406 117.025 C 235.551 116.901,237.552 116.512,239.684 114.442 C 242.074 112.120,242.018 107.534,239.569 105.010 C 237.557 102.937,236.261 102.689,226.719 102.555 L 219.167 102.448 219.167 109.786 M236.836 104.670 C 239.203 105.763,240.403 107.869,240.133 110.457 C 239.686 114.730,236.683 115.833,225.499 115.833 L 220.417 115.833 220.417 109.880 L 220.417 103.926 227.969 103.994 L 235.521 104.063 236.836 104.670 " stroke="none" fill="#53666e" fill-rule="evenodd"></path><path id="path4" d="M330.178 77.031 C 329.216 77.805,327.176 79.422,325.644 80.625 C 324.113 81.828,321.161 84.159,319.086 85.804 C 314.822 89.184,312.987 90.629,308.950 93.790 C 307.399 95.004,305.992 96.168,305.825 96.376 C 305.373 96.939,306.529 96.038,323.345 82.723 C 331.970 75.893,332.150 75.765,332.669 76.057 C 333.800 76.694,335.434 79.281,338.120 84.688 C 341.279 91.046,343.089 93.542,344.543 93.542 C 344.716 93.542,344.447 93.325,343.946 93.060 C 342.448 92.268,341.074 90.217,338.404 84.792 C 335.789 79.478,334.624 77.545,333.333 76.379 C 332.238 75.390,332.213 75.395,330.178 77.031 M349.366 90.748 C 348.244 91.903,346.844 92.901,345.843 93.259 C 345.437 93.404,345.272 93.527,345.477 93.533 C 346.181 93.550,347.569 92.664,349.085 91.229 C 349.920 90.438,350.534 89.792,350.449 89.792 C 350.364 89.792,349.877 90.222,349.366 90.748 M350.938 89.954 C 351.052 90.040,352.584 91.575,354.343 93.365 L 357.540 96.619 358.771 103.258 C 359.449 106.909,360.189 110.786,360.416 111.875 C 360.643 112.964,360.915 114.432,361.021 115.138 C 361.446 117.972,362.387 118.845,365.214 119.026 C 370.125 119.341,374.238 122.633,375.669 127.396 C 375.964 128.378,376.021 128.467,375.932 127.813 C 375.309 123.199,370.174 119.047,364.640 118.682 C 362.704 118.554,361.673 117.628,361.353 115.729 C 361.275 115.271,360.852 113.068,360.413 110.833 C 359.974 108.599,359.230 104.661,358.760 102.083 C 358.290 99.505,357.859 97.184,357.802 96.925 C 357.699 96.453,351.260 89.789,350.913 89.795 C 350.812 89.797,350.823 89.868,350.938 89.954 M306.353 98.646 C 306.565 98.990,307.082 99.693,307.502 100.208 C 307.922 100.724,310.172 103.583,312.501 106.563 C 316.482 111.653,317.280 112.669,320.070 116.198 C 320.681 116.971,322.340 119.104,323.757 120.938 C 325.173 122.771,326.811 124.880,327.397 125.625 C 327.983 126.370,329.306 128.057,330.337 129.375 C 331.368 130.693,333.607 133.552,335.313 135.729 C 337.018 137.906,339.255 140.766,340.283 142.083 C 343.662 146.413,344.236 147.083,344.562 147.083 C 344.801 147.083,344.772 147.004,344.448 146.778 C 344.208 146.609,339.710 140.971,334.454 134.247 C 304.256 95.625,305.328 96.982,306.353 98.646 M297.456 122.863 C 298.177 122.904,299.302 122.903,299.956 122.862 C 300.610 122.821,300.021 122.787,298.646 122.788 C 297.271 122.788,296.735 122.822,297.456 122.863 M311.250 123.065 C 315.362 123.149,315.025 122.920,314.955 125.579 L 314.896 127.813 307.292 127.922 L 299.688 128.031 307.396 128.026 L 315.104 128.021 315.163 125.642 C 315.236 122.728,315.484 122.912,311.563 122.965 L 308.438 123.008 311.250 123.065 M376.041 137.917 L 375.938 147.188 373.750 147.303 L 371.563 147.418 373.672 147.459 C 376.517 147.514,376.264 148.484,376.199 137.788 L 376.144 128.646 376.041 137.917 M305.677 132.427 C 305.534 132.486,305.417 132.674,305.417 132.845 C 305.417 133.112,305.462 133.109,305.744 132.827 C 306.010 132.561,306.605 132.501,308.921 132.503 C 310.838 132.505,311.669 132.572,311.458 132.708 C 311.250 132.843,311.233 132.911,311.406 132.913 C 311.588 132.916,311.667 133.328,311.667 134.271 C 311.667 135.085,311.579 135.625,311.446 135.625 C 311.325 135.625,311.279 135.712,311.345 135.819 C 311.411 135.926,311.368 136.073,311.250 136.146 C 311.132 136.219,311.082 136.355,311.140 136.449 C 311.557 137.124,306.467 137.694,305.697 137.058 C 305.398 136.811,305.363 136.815,305.452 137.083 C 305.573 137.449,323.835 137.784,324.323 137.430 C 324.504 137.298,324.583 136.546,324.583 134.968 C 324.583 133.332,324.510 132.673,324.323 132.615 C 323.911 132.488,305.967 132.307,305.677 132.427 M314.801 141.968 C 314.653 142.146,314.590 143.068,314.628 144.509 L 314.688 146.771 321.042 146.925 C 324.536 147.011,328.802 147.057,330.521 147.030 L 333.646 146.979 333.705 144.527 C 333.749 142.674,333.698 142.055,333.496 141.992 C 332.647 141.728,315.019 141.705,314.801 141.968 M351.704 147.239 C 354.761 147.272,359.824 147.272,362.954 147.239 C 366.085 147.207,363.583 147.180,357.396 147.180 C 351.208 147.180,348.647 147.207,351.704 147.239 M369.010 147.227 C 369.211 147.279,369.539 147.279,369.740 147.227 C 369.940 147.175,369.776 147.132,369.375 147.132 C 368.974 147.132,368.810 147.175,369.010 147.227 " stroke="none" fill="#7516cc" fill-rule="evenodd"></path></g></svg>